<svg width="100%" height="100%" viewBox="0 0 500 442" version="1.1" xmlns="http://www.w3.org/2000/svg" xmlns:xlink="http://www.w3.org/1999/xlink" style="background: #0087CD;">
            <defs>
                <rect id="path-1" x="0" y="0" width="115" height="132"></rect>
                <mask id="mask-2" maskContentUnits="userSpaceOnUse" maskUnits="objectBoundingBox" x="0" y="0" width="115" height="132" fill="white">
                    <use xlink:href="#path-1"></use>
                </mask>
                <rect id="path-3" x="0" y="0" width="115" height="66"></rect>
                <mask id="mask-4" maskContentUnits="userSpaceOnUse" maskUnits="objectBoundingBox" x="0" y="0" width="115" height="66" fill="white">
                    <use xlink:href="#path-3"></use>
                </mask>
                <rect id="path-5" x="0" y="0" width="115" height="45"></rect>
                <mask id="mask-6" maskContentUnits="userSpaceOnUse" maskUnits="objectBoundingBox" x="0" y="0" width="115" height="45" fill="white">
                    <use xlink:href="#path-5"></use>
                </mask>
                <rect id="path-7" x="5.55102041" y="26.3673469" width="55.5102041" height="41.6326531"></rect>
                <mask id="mask-8" maskContentUnits="userSpaceOnUse" maskUnits="objectBoundingBox" x="0" y="0" width="55.5102041" height="41.6326531" fill="white">
                    <use xlink:href="#path-7"></use>
                </mask>
                <rect id="path-9" x="6.93877551" y="0" width="6.93877551" height="20.8163265"></rect>
                <mask id="mask-10" maskContentUnits="userSpaceOnUse" maskUnits="objectBoundingBox" x="0" y="0" width="6.93877551" height="20.8163265" fill="white">
                    <use xlink:href="#path-9"></use>
                </mask>
                <rect id="path-11" x="5.55102041" y="26.3673469" width="55.5102041" height="41.6326531"></rect>
                <mask id="mask-12" maskContentUnits="userSpaceOnUse" maskUnits="objectBoundingBox" x="0" y="0" width="55.5102041" height="41.6326531" fill="white">
                    <use xlink:href="#path-11"></use>
                </mask>
                <rect id="path-13" x="6.93877551" y="0" width="6.93877551" height="20.8163265"></rect>
                <mask id="mask-14" maskContentUnits="userSpaceOnUse" maskUnits="objectBoundingBox" x="0" y="0" width="6.93877551" height="20.8163265" fill="white">
                    <use xlink:href="#path-13"></use>
                </mask>
                <rect id="path-15" x="5.55102041" y="26.3673469" width="55.5102041" height="41.6326531"></rect>
                <mask id="mask-16" maskContentUnits="userSpaceOnUse" maskUnits="objectBoundingBox" x="0" y="0" width="55.5102041" height="41.6326531" fill="white">
                    <use xlink:href="#path-15"></use>
                </mask>
                <rect id="path-17" x="6.93877551" y="0" width="6.93877551" height="20.8163265"></rect>
                <mask id="mask-18" maskContentUnits="userSpaceOnUse" maskUnits="objectBoundingBox" x="0" y="0" width="6.93877551" height="20.8163265" fill="white">
                    <use xlink:href="#path-17"></use>
                </mask>
            </defs>
            <g id="Thumbnails" stroke="none" stroke-width="1" fill="none" fill-rule="evenodd">
                <g id="neighborhood-score">
                    <g id="house-animation" transform="translate(104.000000, 157.000000)">
                        <rect id="house-lighting" fill="#D9D48B" x="37" y="66" width="12" height="13"></rect>
                        <g id="house-pollution" stroke="#0A6798" fill="#0A6798">
                            <circle id="Oval-1" class="house-cascade" cx="9" cy="27" r="2"></circle>
                            <circle id="Oval-2" class="house-cascade" cx="6" cy="21" r="2"></circle>
                            <circle id="Oval-3" class="house-cascade" cx="13" cy="21" r="2"></circle>
                            <circle id="Oval-4" class="house-cascade" cx="17" cy="15" r="2"></circle>
                            <circle id="Oval-5" class="house-cascade" cx="9" cy="14" r="2"></circle>
                            <circle id="Oval-6" class="house-cascade" cx="2" cy="14" r="2"></circle>
                            <circle id="Oval-7" class="house-cascade" cx="14" cy="9" r="2"></circle>
                            <circle id="Oval-8" class="house-cascade" cx="6" cy="7" r="2"></circle>
                            <circle id="Oval-9" class="house-cascade" cx="11" cy="2" r="2"></circle>
                        </g>
                        <rect id="house-paint"  fill="#196288" opacity="0.31745569" x="5.55102041" y="58.3673469" width="55.5102041" height="41.6326531"></rect>
                        <polygon id="roof-paint"  fill="#196288" opacity="0.5" points="34 36.1632653 68 59.755102 0 59.755102"></polygon>
                    </g>
                    <g id="Background" transform="translate(49.000000, 123.000000)">
                        <path d="M0.5,195.5 L402.5112,195.5" id="Ground" stroke="#095279" stroke-width="3" stroke-linecap="square"></path>
                        <g id="First" transform="translate(142.000000, 65.000000)">
                            <use id="Rectangle-2" stroke="#095279" mask="url(#mask-2)" stroke-width="6" xlink:href="#path-1"></use>
                            <text id="1" font-family="SourceSansPro-Bold, Source Sans Pro" font-size="36" font-weight="bold" fill="#095279">
                                <tspan x="50" y="69">1</tspan>
                            </text>
                        </g>
                        <g id="Second" transform="translate(30.000000, 131.000000)">
                            <use id="Rectangle-2" stroke="#095279" mask="url(#mask-4)" stroke-width="6" xlink:href="#path-3"></use>
                            <text id="2" font-family="SourceSansPro-Bold, Source Sans Pro" font-size="32" font-weight="bold" fill="#095279">
                                <tspan x="49" y="44">2</tspan>
                            </text>
                        </g>
                        <g id="Third" transform="translate(254.000000, 152.000000)">
                            <use id="Rectangle-2" stroke="#095279" mask="url(#mask-6)" stroke-width="6" xlink:href="#path-5"></use>
                            <text id="3" font-family="SourceSansPro-Bold, Source Sans Pro" font-size="28" font-weight="bold" fill="#095279">
                                <tspan x="50" y="33">3</tspan>
                            </text>
                        </g>
                        <g id="House-One" transform="translate(164.000000, 0.000000)">
                            <use id="Rectangle-3" stroke="#095279" mask="url(#mask-8)" stroke-width="6" xlink:href="#path-7"></use>
                            <polygon id="Triangle" stroke="#095279" stroke-width="3" points="34 4.16326531 68 27.755102 0 27.755102"></polygon>
                            <path d="M50.216133,33.2972399 L35.8625134,33.2972399 L35.8625134,47.7469335 L50.2257793,47.7469335 L50.2257793,33.2972399 L50.216133,33.2972399 Z M42.2386845,46.145725 L37.4541446,46.145725 L37.4541446,41.3323952 L42.2386845,41.3323952 L42.2386845,46.145725 L42.2386845,46.145725 Z M42.2386845,39.7214824 L37.4541446,39.7214824 L37.4541446,34.9081527 L42.2386845,34.9081527 L42.2386845,39.7214824 L42.2386845,39.7214824 Z M48.6245018,46.145725 L43.8399619,46.145725 L43.8399619,41.3323952 L48.6245018,41.3323952 L48.6245018,46.145725 L48.6245018,46.145725 Z M48.6245018,39.7214824 L43.8399619,39.7214824 L43.8399619,34.9081527 L48.6245018,34.9081527 L48.6245018,39.7214824 L48.6245018,39.7214824 Z" id="Shape" fill="#095279"></path>
                            <use id="Rectangle-4" stroke="#095279" mask="url(#mask-10)" stroke-width="4" xlink:href="#path-9"></use>
                        </g>
                        <g id="House-Two" transform="translate(55.000000, 66.000000)">
                            <use id="Rectangle-3" stroke="#095279" mask="url(#mask-12)" stroke-width="6" xlink:href="#path-11"></use>
                            <polygon id="Triangle" stroke="#095279" stroke-width="3" points="34 4.16326531 68 27.755102 0 27.755102"></polygon>
                            <path d="M50.216133,33.2972399 L35.8625134,33.2972399 L35.8625134,47.7469335 L50.2257793,47.7469335 L50.2257793,33.2972399 L50.216133,33.2972399 Z M42.2386845,46.145725 L37.4541446,46.145725 L37.4541446,41.3323952 L42.2386845,41.3323952 L42.2386845,46.145725 L42.2386845,46.145725 Z M42.2386845,39.7214824 L37.4541446,39.7214824 L37.4541446,34.9081527 L42.2386845,34.9081527 L42.2386845,39.7214824 L42.2386845,39.7214824 Z M48.6245018,46.145725 L43.8399619,46.145725 L43.8399619,41.3323952 L48.6245018,41.3323952 L48.6245018,46.145725 L48.6245018,46.145725 Z M48.6245018,39.7214824 L43.8399619,39.7214824 L43.8399619,34.9081527 L48.6245018,34.9081527 L48.6245018,39.7214824 L48.6245018,39.7214824 Z" id="Shape" fill="#095279"></path>
                            <use id="Rectangle-4" stroke="#095279" mask="url(#mask-14)" stroke-width="4" xlink:href="#path-13"></use>
                        </g>
                        <g id="House-Three" transform="translate(277.000000, 87.000000)">
                            <use id="Rectangle-3" stroke="#085279" mask="url(#mask-16)" stroke-width="6" xlink:href="#path-15"></use>
                            <polygon id="Triangle" stroke="#085279" stroke-width="3" points="34 4.16326531 68 27.755102 0 27.755102"></polygon>
                            <path d="M50.216133,33.2972399 L35.8625134,33.2972399 L35.8625134,47.7469335 L50.2257793,47.7469335 L50.2257793,33.2972399 L50.216133,33.2972399 Z M42.2386845,46.145725 L37.4541446,46.145725 L37.4541446,41.3323952 L42.2386845,41.3323952 L42.2386845,46.145725 L42.2386845,46.145725 Z M42.2386845,39.7214824 L37.4541446,39.7214824 L37.4541446,34.9081527 L42.2386845,34.9081527 L42.2386845,39.7214824 L42.2386845,39.7214824 Z M48.6245018,46.145725 L43.8399619,46.145725 L43.8399619,41.3323952 L48.6245018,41.3323952 L48.6245018,46.145725 L48.6245018,46.145725 Z M48.6245018,39.7214824 L43.8399619,39.7214824 L43.8399619,34.9081527 L48.6245018,34.9081527 L48.6245018,39.7214824 L48.6245018,39.7214824 Z" id="Shape" fill="#095279"></path>
                            <use id="Rectangle-4" stroke="#085279" mask="url(#mask-18)" stroke-width="4" xlink:href="#path-17"></use>
                        </g>
                    </g>
                </g>
            </g>
        </svg>