<svg width="100%" height="100%" viewBox="0 0 500 442" version="1.1" xmlns="http://www.w3.org/2000/svg" xmlns:xlink="http://www.w3.org/1999/xlink" style="background: #F89728;">
            <defs></defs>
            <g id="Thumbnails" stroke="none" stroke-width="1" fill="none" fill-rule="evenodd">
                <g id="Cars-off-the-road">
                    <g id="Car-Visualization-Base" transform="translate(38.000000, 76.000000)" stroke="#935813" stroke-width="3" opacity="0.847597948">
                        <g id="Row-Five" transform="translate(0.000000, 259.000000)" fill="#DD831C">
                            <path d="M45.1982692,24.6658079 L51.0038948,24.6658079 L51.0038948,12.593054 L39.3370973,10.8938143 L39.3201857,10.8938143 L33.5566621,0.885131927 L15.3358839,0.885131927 L9.57250191,10.8938142 L9.60448533,10.8938142 L0.303894,12.5930538 L0.303894,24.6658078 L5.23061266,24.6658078 C5.23061266,28.6542601 7.9721993,31.8875135 11.3541618,31.8875135 C14.7361242,31.8875135 17.4778524,28.6542601 17.4778524,24.6658078 L32.9510294,24.6658078 C32.9510294,28.6542601 35.6926161,31.8875135 39.0745785,31.8875135 C42.4566118,31.8875135 45.1982692,28.6542603 45.1982692,24.6658079 L45.1982692,24.6658079 Z" id="Shape"></path>
                            <path d="M115.198269,24.6658079 L121.003895,24.6658079 L121.003895,12.593054 L109.337097,10.8938143 L109.320186,10.8938143 L103.556662,0.885131927 L85.3358839,0.885131927 L79.5725019,10.8938142 L79.6044853,10.8938142 L70.303894,12.5930538 L70.303894,24.6658078 L75.2306127,24.6658078 C75.2306127,28.6542601 77.9721993,31.8875135 81.3541618,31.8875135 C84.7361242,31.8875135 87.4778524,28.6542601 87.4778524,24.6658078 L102.951029,24.6658078 C102.951029,28.6542601 105.692616,31.8875135 109.074579,31.8875135 C112.456612,31.8875135 115.198269,28.6542603 115.198269,24.6658079 L115.198269,24.6658079 Z" id="Shape"></path>
                            <path d="M185.198269,24.6658079 L191.003895,24.6658079 L191.003895,12.593054 L179.337097,10.8938143 L179.320186,10.8938143 L173.556662,0.885131927 L155.335884,0.885131927 L149.572502,10.8938142 L149.604485,10.8938142 L140.303894,12.5930538 L140.303894,24.6658078 L145.230613,24.6658078 C145.230613,28.6542601 147.972199,31.8875135 151.354162,31.8875135 C154.736124,31.8875135 157.477852,28.6542601 157.477852,24.6658078 L172.951029,24.6658078 C172.951029,28.6542601 175.692616,31.8875135 179.074579,31.8875135 C182.456612,31.8875135 185.198269,28.6542603 185.198269,24.6658079 L185.198269,24.6658079 Z" id="Shape"></path>
                            <path d="M255.198269,24.6658079 L261.003895,24.6658079 L261.003895,12.593054 L249.337097,10.8938143 L249.320186,10.8938143 L243.556662,0.885131927 L225.335884,0.885131927 L219.572502,10.8938142 L219.604485,10.8938142 L210.303894,12.5930538 L210.303894,24.6658078 L215.230613,24.6658078 C215.230613,28.6542601 217.972199,31.8875135 221.354162,31.8875135 C224.736124,31.8875135 227.477852,28.6542601 227.477852,24.6658078 L242.951029,24.6658078 C242.951029,28.6542601 245.692616,31.8875135 249.074579,31.8875135 C252.456612,31.8875135 255.198269,28.6542603 255.198269,24.6658079 L255.198269,24.6658079 Z" id="Shape"></path>
                            <path d="M325.198269,24.6658079 L331.003895,24.6658079 L331.003895,12.593054 L319.337097,10.8938143 L319.320186,10.8938143 L313.556662,0.885131927 L295.335884,0.885131927 L289.572502,10.8938142 L289.604485,10.8938142 L280.303894,12.5930538 L280.303894,24.6658078 L285.230613,24.6658078 C285.230613,28.6542601 287.972199,31.8875135 291.354162,31.8875135 C294.736124,31.8875135 297.477852,28.6542601 297.477852,24.6658078 L312.951029,24.6658078 C312.951029,28.6542601 315.692616,31.8875135 319.074579,31.8875135 C322.456612,31.8875135 325.198269,28.6542603 325.198269,24.6658079 L325.198269,24.6658079 Z" id="Shape"></path>
                            <path d="M395.198269,24.6658079 L401.003895,24.6658079 L401.003895,12.593054 L389.337097,10.8938143 L389.320186,10.8938143 L383.556662,0.885131927 L365.335884,0.885131927 L359.572502,10.8938142 L359.604485,10.8938142 L350.303894,12.5930538 L350.303894,24.6658078 L355.230613,24.6658078 C355.230613,28.6542601 357.972199,31.8875135 361.354162,31.8875135 C364.736124,31.8875135 367.477852,28.6542601 367.477852,24.6658078 L382.951029,24.6658078 C382.951029,28.6542601 385.692616,31.8875135 389.074579,31.8875135 C392.456612,31.8875135 395.198269,28.6542603 395.198269,24.6658079 L395.198269,24.6658079 Z" id="Shape"></path>
                        </g>
                        <g id="Row-Four" transform="translate(23.000000, 195.000000)" fill="#DD831C">
                            <path d="M45.1982692,24.6658079 L51.0038948,24.6658079 L51.0038948,12.593054 L39.3370973,10.8938143 L39.3201857,10.8938143 L33.5566621,0.885131927 L15.3358839,0.885131927 L9.57250191,10.8938142 L9.60448533,10.8938142 L0.303894,12.5930538 L0.303894,24.6658078 L5.23061266,24.6658078 C5.23061266,28.6542601 7.9721993,31.8875135 11.3541618,31.8875135 C14.7361242,31.8875135 17.4778524,28.6542601 17.4778524,24.6658078 L32.9510294,24.6658078 C32.9510294,28.6542601 35.6926161,31.8875135 39.0745785,31.8875135 C42.4566118,31.8875135 45.1982692,28.6542603 45.1982692,24.6658079 L45.1982692,24.6658079 Z" id="Shape"></path>
                            <path d="M115.198269,24.6658079 L121.003895,24.6658079 L121.003895,12.593054 L109.337097,10.8938143 L109.320186,10.8938143 L103.556662,0.885131927 L85.3358839,0.885131927 L79.5725019,10.8938142 L79.6044853,10.8938142 L70.303894,12.5930538 L70.303894,24.6658078 L75.2306127,24.6658078 C75.2306127,28.6542601 77.9721993,31.8875135 81.3541618,31.8875135 C84.7361242,31.8875135 87.4778524,28.6542601 87.4778524,24.6658078 L102.951029,24.6658078 C102.951029,28.6542601 105.692616,31.8875135 109.074579,31.8875135 C112.456612,31.8875135 115.198269,28.6542603 115.198269,24.6658079 L115.198269,24.6658079 Z" id="Shape"></path>
                            <path d="M185.198269,24.6658079 L191.003895,24.6658079 L191.003895,12.593054 L179.337097,10.8938143 L179.320186,10.8938143 L173.556662,0.885131927 L155.335884,0.885131927 L149.572502,10.8938142 L149.604485,10.8938142 L140.303894,12.5930538 L140.303894,24.6658078 L145.230613,24.6658078 C145.230613,28.6542601 147.972199,31.8875135 151.354162,31.8875135 C154.736124,31.8875135 157.477852,28.6542601 157.477852,24.6658078 L172.951029,24.6658078 C172.951029,28.6542601 175.692616,31.8875135 179.074579,31.8875135 C182.456612,31.8875135 185.198269,28.6542603 185.198269,24.6658079 L185.198269,24.6658079 Z" id="Shape"></path>
                            <path d="M255.198269,24.6658079 L261.003895,24.6658079 L261.003895,12.593054 L249.337097,10.8938143 L249.320186,10.8938143 L243.556662,0.885131927 L225.335884,0.885131927 L219.572502,10.8938142 L219.604485,10.8938142 L210.303894,12.5930538 L210.303894,24.6658078 L215.230613,24.6658078 C215.230613,28.6542601 217.972199,31.8875135 221.354162,31.8875135 C224.736124,31.8875135 227.477852,28.6542601 227.477852,24.6658078 L242.951029,24.6658078 C242.951029,28.6542601 245.692616,31.8875135 249.074579,31.8875135 C252.456612,31.8875135 255.198269,28.6542603 255.198269,24.6658079 L255.198269,24.6658079 Z" id="Shape"></path>
                            <path d="M325.198269,24.6658079 L331.003895,24.6658079 L331.003895,12.593054 L319.337097,10.8938143 L319.320186,10.8938143 L313.556662,0.885131927 L295.335884,0.885131927 L289.572502,10.8938142 L289.604485,10.8938142 L280.303894,12.5930538 L280.303894,24.6658078 L285.230613,24.6658078 C285.230613,28.6542601 287.972199,31.8875135 291.354162,31.8875135 C294.736124,31.8875135 297.477852,28.6542601 297.477852,24.6658078 L312.951029,24.6658078 C312.951029,28.6542601 315.692616,31.8875135 319.074579,31.8875135 C322.456612,31.8875135 325.198269,28.6542603 325.198269,24.6658079 L325.198269,24.6658079 Z" id="Shape"></path>
                            <path d="M395.198269,24.6658079 L401.003895,24.6658079 L401.003895,12.593054 L389.337097,10.8938143 L389.320186,10.8938143 L383.556662,0.885131927 L365.335884,0.885131927 L359.572502,10.8938142 L359.604485,10.8938142 L350.303894,12.5930538 L350.303894,24.6658078 L355.230613,24.6658078 C355.230613,28.6542601 357.972199,31.8875135 361.354162,31.8875135 C364.736124,31.8875135 367.477852,28.6542601 367.477852,24.6658078 L382.951029,24.6658078 C382.951029,28.6542601 385.692616,31.8875135 389.074579,31.8875135 C392.456612,31.8875135 395.198269,28.6542603 395.198269,24.6658079 L395.198269,24.6658079 Z" id="Shape"></path>
                        </g>
                        <g id="Row-Three" transform="translate(0.000000, 130.000000)">
                            <path d="M45.1982692,24.6658079 L51.0038948,24.6658079 L51.0038948,12.593054 L39.3370973,10.8938143 L39.3201857,10.8938143 L33.5566621,0.885131927 L15.3358839,0.885131927 L9.57250191,10.8938142 L9.60448533,10.8938142 L0.303894,12.5930538 L0.303894,24.6658078 L5.23061266,24.6658078 C5.23061266,28.6542601 7.9721993,31.8875135 11.3541618,31.8875135 C14.7361242,31.8875135 17.4778524,28.6542601 17.4778524,24.6658078 L32.9510294,24.6658078 C32.9510294,28.6542601 35.6926161,31.8875135 39.0745785,31.8875135 C42.4566118,31.8875135 45.1982692,28.6542603 45.1982692,24.6658079 L45.1982692,24.6658079 Z" id="Shape-Off"></path>
                            <path d="M115.198269,24.6658079 L121.003895,24.6658079 L121.003895,12.593054 L109.337097,10.8938143 L109.320186,10.8938143 L103.556662,0.885131927 L85.3358839,0.885131927 L79.5725019,10.8938142 L79.6044853,10.8938142 L70.303894,12.5930538 L70.303894,24.6658078 L75.2306127,24.6658078 C75.2306127,28.6542601 77.9721993,31.8875135 81.3541618,31.8875135 C84.7361242,31.8875135 87.4778524,28.6542601 87.4778524,24.6658078 L102.951029,24.6658078 C102.951029,28.6542601 105.692616,31.8875135 109.074579,31.8875135 C112.456612,31.8875135 115.198269,28.6542603 115.198269,24.6658079 L115.198269,24.6658079 Z" id="Shape" fill="#DD831C"></path>
                            <path d="M185.198269,24.6658079 L191.003895,24.6658079 L191.003895,12.593054 L179.337097,10.8938143 L179.320186,10.8938143 L173.556662,0.885131927 L155.335884,0.885131927 L149.572502,10.8938142 L149.604485,10.8938142 L140.303894,12.5930538 L140.303894,24.6658078 L145.230613,24.6658078 C145.230613,28.6542601 147.972199,31.8875135 151.354162,31.8875135 C154.736124,31.8875135 157.477852,28.6542601 157.477852,24.6658078 L172.951029,24.6658078 C172.951029,28.6542601 175.692616,31.8875135 179.074579,31.8875135 C182.456612,31.8875135 185.198269,28.6542603 185.198269,24.6658079 L185.198269,24.6658079 Z" id="Shape" fill="#DD831C"></path>
                            <path d="M255.198269,24.6658079 L261.003895,24.6658079 L261.003895,12.593054 L249.337097,10.8938143 L249.320186,10.8938143 L243.556662,0.885131927 L225.335884,0.885131927 L219.572502,10.8938142 L219.604485,10.8938142 L210.303894,12.5930538 L210.303894,24.6658078 L215.230613,24.6658078 C215.230613,28.6542601 217.972199,31.8875135 221.354162,31.8875135 C224.736124,31.8875135 227.477852,28.6542601 227.477852,24.6658078 L242.951029,24.6658078 C242.951029,28.6542601 245.692616,31.8875135 249.074579,31.8875135 C252.456612,31.8875135 255.198269,28.6542603 255.198269,24.6658079 L255.198269,24.6658079 Z" id="Shape" fill="#DD831C"></path>
                            <path d="M325.198269,24.6658079 L331.003895,24.6658079 L331.003895,12.593054 L319.337097,10.8938143 L319.320186,10.8938143 L313.556662,0.885131927 L295.335884,0.885131927 L289.572502,10.8938142 L289.604485,10.8938142 L280.303894,12.5930538 L280.303894,24.6658078 L285.230613,24.6658078 C285.230613,28.6542601 287.972199,31.8875135 291.354162,31.8875135 C294.736124,31.8875135 297.477852,28.6542601 297.477852,24.6658078 L312.951029,24.6658078 C312.951029,28.6542601 315.692616,31.8875135 319.074579,31.8875135 C322.456612,31.8875135 325.198269,28.6542603 325.198269,24.6658079 L325.198269,24.6658079 Z" id="Shape" fill="#DD831C"></path>
                            <path d="M395.198269,24.6658079 L401.003895,24.6658079 L401.003895,12.593054 L389.337097,10.8938143 L389.320186,10.8938143 L383.556662,0.885131927 L365.335884,0.885131927 L359.572502,10.8938142 L359.604485,10.8938142 L350.303894,12.5930538 L350.303894,24.6658078 L355.230613,24.6658078 C355.230613,28.6542601 357.972199,31.8875135 361.354162,31.8875135 C364.736124,31.8875135 367.477852,28.6542601 367.477852,24.6658078 L382.951029,24.6658078 C382.951029,28.6542601 385.692616,31.8875135 389.074579,31.8875135 C392.456612,31.8875135 395.198269,28.6542603 395.198269,24.6658079 L395.198269,24.6658079 Z" id="Shape" fill="#DD831C"></path>
                        </g>
                        <g id="Row-Two" transform="translate(23.000000, 65.000000)">
                            <path d="M45.1982692,24.6658079 L51.0038948,24.6658079 L51.0038948,12.593054 L39.3370973,10.8938143 L39.3201857,10.8938143 L33.5566621,0.885131927 L15.3358839,0.885131927 L9.57250191,10.8938142 L9.60448533,10.8938142 L0.303894,12.5930538 L0.303894,24.6658078 L5.23061266,24.6658078 C5.23061266,28.6542601 7.9721993,31.8875135 11.3541618,31.8875135 C14.7361242,31.8875135 17.4778524,28.6542601 17.4778524,24.6658078 L32.9510294,24.6658078 C32.9510294,28.6542601 35.6926161,31.8875135 39.0745785,31.8875135 C42.4566118,31.8875135 45.1982692,28.6542603 45.1982692,24.6658079 L45.1982692,24.6658079 Z" id="Shape-Off"></path>
                            <path d="M115.198269,24.6658079 L121.003895,24.6658079 L121.003895,12.593054 L109.337097,10.8938143 L109.320186,10.8938143 L103.556662,0.885131927 L85.3358839,0.885131927 L79.5725019,10.8938142 L79.6044853,10.8938142 L70.303894,12.5930538 L70.303894,24.6658078 L75.2306127,24.6658078 C75.2306127,28.6542601 77.9721993,31.8875135 81.3541618,31.8875135 C84.7361242,31.8875135 87.4778524,28.6542601 87.4778524,24.6658078 L102.951029,24.6658078 C102.951029,28.6542601 105.692616,31.8875135 109.074579,31.8875135 C112.456612,31.8875135 115.198269,28.6542603 115.198269,24.6658079 L115.198269,24.6658079 Z" id="Shape-Off"></path>
                            <path d="M185.198269,24.6658079 L191.003895,24.6658079 L191.003895,12.593054 L179.337097,10.8938143 L179.320186,10.8938143 L173.556662,0.885131927 L155.335884,0.885131927 L149.572502,10.8938142 L149.604485,10.8938142 L140.303894,12.5930538 L140.303894,24.6658078 L145.230613,24.6658078 C145.230613,28.6542601 147.972199,31.8875135 151.354162,31.8875135 C154.736124,31.8875135 157.477852,28.6542601 157.477852,24.6658078 L172.951029,24.6658078 C172.951029,28.6542601 175.692616,31.8875135 179.074579,31.8875135 C182.456612,31.8875135 185.198269,28.6542603 185.198269,24.6658079 L185.198269,24.6658079 Z" id="Shape" fill="#DD831C"></path>
                            <path d="M255.198269,24.6658079 L261.003895,24.6658079 L261.003895,12.593054 L249.337097,10.8938143 L249.320186,10.8938143 L243.556662,0.885131927 L225.335884,0.885131927 L219.572502,10.8938142 L219.604485,10.8938142 L210.303894,12.5930538 L210.303894,24.6658078 L215.230613,24.6658078 C215.230613,28.6542601 217.972199,31.8875135 221.354162,31.8875135 C224.736124,31.8875135 227.477852,28.6542601 227.477852,24.6658078 L242.951029,24.6658078 C242.951029,28.6542601 245.692616,31.8875135 249.074579,31.8875135 C252.456612,31.8875135 255.198269,28.6542603 255.198269,24.6658079 L255.198269,24.6658079 Z" id="Shape" fill="#DD831C"></path>
                            <path d="M325.198269,24.6658079 L331.003895,24.6658079 L331.003895,12.593054 L319.337097,10.8938143 L319.320186,10.8938143 L313.556662,0.885131927 L295.335884,0.885131927 L289.572502,10.8938142 L289.604485,10.8938142 L280.303894,12.5930538 L280.303894,24.6658078 L285.230613,24.6658078 C285.230613,28.6542601 287.972199,31.8875135 291.354162,31.8875135 C294.736124,31.8875135 297.477852,28.6542601 297.477852,24.6658078 L312.951029,24.6658078 C312.951029,28.6542601 315.692616,31.8875135 319.074579,31.8875135 C322.456612,31.8875135 325.198269,28.6542603 325.198269,24.6658079 L325.198269,24.6658079 Z" id="Shape" fill="#DD831C"></path>
                            <path d="M395.198269,24.6658079 L401.003895,24.6658079 L401.003895,12.593054 L389.337097,10.8938143 L389.320186,10.8938143 L383.556662,0.885131927 L365.335884,0.885131927 L359.572502,10.8938142 L359.604485,10.8938142 L350.303894,12.5930538 L350.303894,24.6658078 L355.230613,24.6658078 C355.230613,28.6542601 357.972199,31.8875135 361.354162,31.8875135 C364.736124,31.8875135 367.477852,28.6542601 367.477852,24.6658078 L382.951029,24.6658078 C382.951029,28.6542601 385.692616,31.8875135 389.074579,31.8875135 C392.456612,31.8875135 395.198269,28.6542603 395.198269,24.6658079 L395.198269,24.6658079 Z" id="Shape" fill="#DD831C"></path>
                        </g>
                        <g id="Row-One">
                            <path d="M45.1982692,24.6658079 L51.0038948,24.6658079 L51.0038948,12.593054 L39.3370973,10.8938143 L39.3201857,10.8938143 L33.5566621,0.885131927 L15.3358839,0.885131927 L9.57250191,10.8938142 L9.60448533,10.8938142 L0.303894,12.5930538 L0.303894,24.6658078 L5.23061266,24.6658078 C5.23061266,28.6542601 7.9721993,31.8875135 11.3541618,31.8875135 C14.7361242,31.8875135 17.4778524,28.6542601 17.4778524,24.6658078 L32.9510294,24.6658078 C32.9510294,28.6542601 35.6926161,31.8875135 39.0745785,31.8875135 C42.4566118,31.8875135 45.1982692,28.6542603 45.1982692,24.6658079 L45.1982692,24.6658079 Z" id="Shape-Off"></path>
                            <path d="M115.198269,24.6658079 L121.003895,24.6658079 L121.003895,12.593054 L109.337097,10.8938143 L109.320186,10.8938143 L103.556662,0.885131927 L85.3358839,0.885131927 L79.5725019,10.8938142 L79.6044853,10.8938142 L70.303894,12.5930538 L70.303894,24.6658078 L75.2306127,24.6658078 C75.2306127,28.6542601 77.9721993,31.8875135 81.3541618,31.8875135 C84.7361242,31.8875135 87.4778524,28.6542601 87.4778524,24.6658078 L102.951029,24.6658078 C102.951029,28.6542601 105.692616,31.8875135 109.074579,31.8875135 C112.456612,31.8875135 115.198269,28.6542603 115.198269,24.6658079 L115.198269,24.6658079 Z" id="Shape-Off"></path>
                            <path d="M185.198269,24.6658079 L191.003895,24.6658079 L191.003895,12.593054 L179.337097,10.8938143 L179.320186,10.8938143 L173.556662,0.885131927 L155.335884,0.885131927 L149.572502,10.8938142 L149.604485,10.8938142 L140.303894,12.5930538 L140.303894,24.6658078 L145.230613,24.6658078 C145.230613,28.6542601 147.972199,31.8875135 151.354162,31.8875135 C154.736124,31.8875135 157.477852,28.6542601 157.477852,24.6658078 L172.951029,24.6658078 C172.951029,28.6542601 175.692616,31.8875135 179.074579,31.8875135 C182.456612,31.8875135 185.198269,28.6542603 185.198269,24.6658079 L185.198269,24.6658079 Z" id="Shape-Off"></path>
                            <path d="M255.198269,24.6658079 L261.003895,24.6658079 L261.003895,12.593054 L249.337097,10.8938143 L249.320186,10.8938143 L243.556662,0.885131927 L225.335884,0.885131927 L219.572502,10.8938142 L219.604485,10.8938142 L210.303894,12.5930538 L210.303894,24.6658078 L215.230613,24.6658078 C215.230613,28.6542601 217.972199,31.8875135 221.354162,31.8875135 C224.736124,31.8875135 227.477852,28.6542601 227.477852,24.6658078 L242.951029,24.6658078 C242.951029,28.6542601 245.692616,31.8875135 249.074579,31.8875135 C252.456612,31.8875135 255.198269,28.6542603 255.198269,24.6658079 L255.198269,24.6658079 Z" id="Shape" fill="#DD831B"></path>
                            <path d="M325.198269,24.6658079 L331.003895,24.6658079 L331.003895,12.593054 L319.337097,10.8938143 L319.320186,10.8938143 L313.556662,0.885131927 L295.335884,0.885131927 L289.572502,10.8938142 L289.604485,10.8938142 L280.303894,12.5930538 L280.303894,24.6658078 L285.230613,24.6658078 C285.230613,28.6542601 287.972199,31.8875135 291.354162,31.8875135 C294.736124,31.8875135 297.477852,28.6542601 297.477852,24.6658078 L312.951029,24.6658078 C312.951029,28.6542601 315.692616,31.8875135 319.074579,31.8875135 C322.456612,31.8875135 325.198269,28.6542603 325.198269,24.6658079 L325.198269,24.6658079 Z" id="Shape" fill="#DD831B"></path>
                            <path d="M395.198269,24.6658079 L401.003895,24.6658079 L401.003895,12.593054 L389.337097,10.8938143 L389.320186,10.8938143 L383.556662,0.885131927 L365.335884,0.885131927 L359.572502,10.8938142 L359.604485,10.8938142 L350.303894,12.5930538 L350.303894,24.6658078 L355.230613,24.6658078 C355.230613,28.6542601 357.972199,31.8875135 361.354162,31.8875135 C364.736124,31.8875135 367.477852,28.6542601 367.477852,24.6658078 L382.951029,24.6658078 C382.951029,28.6542601 385.692616,31.8875135 389.074579,31.8875135 C392.456612,31.8875135 395.198269,28.6542603 395.198269,24.6658079 L395.198269,24.6658079 Z" id="Shape" fill="#DD831B"></path>
                        </g>
                    </g>
                    <g id="car-animation" transform="translate(23.000000, 73.000000)">
                        <g id="5-6" class="car-animation" transform="translate(350.000000, 259.000000)">
                            <path d="M60.1982692,27.6658079 L66.0038948,27.6658079 L66.0038948,15.593054 L54.3370973,13.8938143 L54.3201857,13.8938143 L48.5566621,3.88513193 L30.3358839,3.88513193 L24.5725019,13.8938142 L24.6044853,13.8938142 L15.303894,15.5930538 L15.303894,27.6658078 L20.2306127,27.6658078 C20.2306127,31.6542601 22.9721993,34.8875135 26.3541618,34.8875135 C29.7361242,34.8875135 32.4778524,31.6542601 32.4778524,27.6658078 L47.9510294,27.6658078 C47.9510294,31.6542601 50.6926161,34.8875135 54.0745785,34.8875135 C57.4566118,34.8875135 60.1982692,31.6542603 60.1982692,27.6658079 L60.1982692,27.6658079 Z" id="Shape" stroke="#935813" stroke-width="3" fill="#9C5C12" opacity="0.847597948"></path>
                            <g id="Smoke" stroke="#935814" fill="#9C5C13">
                                <circle id="Oval-1" cx="9" cy="16" r="2"></circle>
                                <circle id="Oval-2" cx="9" cy="23" r="2"></circle>
                                <circle id="Oval-3" cx="2" cy="16" r="2"></circle>
                                <circle id="Oval-4" cx="2" cy="9" r="2"></circle>
                                <circle id="Oval-5" cx="9" cy="9" r="2"></circle>
                                <circle id="Oval-6" cx="6" cy="2" r="2"></circle>
                            </g>
                        </g>
                        <g id="5-5" class="car-animation" transform="translate(280.000000, 259.000000)">
                            <path d="M60.1982692,27.6658079 L66.0038948,27.6658079 L66.0038948,15.593054 L54.3370973,13.8938143 L54.3201857,13.8938143 L48.5566621,3.88513193 L30.3358839,3.88513193 L24.5725019,13.8938142 L24.6044853,13.8938142 L15.303894,15.5930538 L15.303894,27.6658078 L20.2306127,27.6658078 C20.2306127,31.6542601 22.9721993,34.8875135 26.3541618,34.8875135 C29.7361242,34.8875135 32.4778524,31.6542601 32.4778524,27.6658078 L47.9510294,27.6658078 C47.9510294,31.6542601 50.6926161,34.8875135 54.0745785,34.8875135 C57.4566118,34.8875135 60.1982692,31.6542603 60.1982692,27.6658079 L60.1982692,27.6658079 Z" id="Shape" stroke="#935813" stroke-width="3" fill="#9C5C12" opacity="0.847597948"></path>
                            <g id="Smoke" stroke="#935814" fill="#9C5C13">
                                <circle id="Oval-1" cx="9" cy="16" r="2"></circle>
                                <circle id="Oval-2" cx="9" cy="23" r="2"></circle>
                                <circle id="Oval-3" cx="2" cy="16" r="2"></circle>
                                <circle id="Oval-4" cx="2" cy="9" r="2"></circle>
                                <circle id="Oval-5" cx="9" cy="9" r="2"></circle>
                                <circle id="Oval-6" cx="6" cy="2" r="2"></circle>
                            </g>
                        </g>
                        <g id="5-4" class="car-animation" transform="translate(210.000000, 259.000000)">
                            <path d="M60.1982692,27.6658079 L66.0038948,27.6658079 L66.0038948,15.593054 L54.3370973,13.8938143 L54.3201857,13.8938143 L48.5566621,3.88513193 L30.3358839,3.88513193 L24.5725019,13.8938142 L24.6044853,13.8938142 L15.303894,15.5930538 L15.303894,27.6658078 L20.2306127,27.6658078 C20.2306127,31.6542601 22.9721993,34.8875135 26.3541618,34.8875135 C29.7361242,34.8875135 32.4778524,31.6542601 32.4778524,27.6658078 L47.9510294,27.6658078 C47.9510294,31.6542601 50.6926161,34.8875135 54.0745785,34.8875135 C57.4566118,34.8875135 60.1982692,31.6542603 60.1982692,27.6658079 L60.1982692,27.6658079 Z" id="Shape" stroke="#935813" stroke-width="3" fill="#9C5C12" opacity="0.847597948"></path>
                            <g id="Smoke" stroke="#935814" fill="#9C5C13">
                                <circle id="Oval-1" cx="9" cy="16" r="2"></circle>
                                <circle id="Oval-2" cx="9" cy="23" r="2"></circle>
                                <circle id="Oval-3" cx="2" cy="16" r="2"></circle>
                                <circle id="Oval-4" cx="2" cy="9" r="2"></circle>
                                <circle id="Oval-5" cx="9" cy="9" r="2"></circle>
                                <circle id="Oval-6" cx="6" cy="2" r="2"></circle>
                            </g>
                        </g>
                        <g id="5-3" class="car-animation" transform="translate(140.000000, 259.000000)">
                            <path d="M60.1982692,27.6658079 L66.0038948,27.6658079 L66.0038948,15.593054 L54.3370973,13.8938143 L54.3201857,13.8938143 L48.5566621,3.88513193 L30.3358839,3.88513193 L24.5725019,13.8938142 L24.6044853,13.8938142 L15.303894,15.5930538 L15.303894,27.6658078 L20.2306127,27.6658078 C20.2306127,31.6542601 22.9721993,34.8875135 26.3541618,34.8875135 C29.7361242,34.8875135 32.4778524,31.6542601 32.4778524,27.6658078 L47.9510294,27.6658078 C47.9510294,31.6542601 50.6926161,34.8875135 54.0745785,34.8875135 C57.4566118,34.8875135 60.1982692,31.6542603 60.1982692,27.6658079 L60.1982692,27.6658079 Z" id="Shape" stroke="#935813" stroke-width="3" fill="#9C5C12" opacity="0.847597948"></path>
                            <g id="Smoke" stroke="#935814" fill="#9C5C13">
                                <circle id="Oval-1" cx="9" cy="16" r="2"></circle>
                                <circle id="Oval-2" cx="9" cy="23" r="2"></circle>
                                <circle id="Oval-3" cx="2" cy="16" r="2"></circle>
                                <circle id="Oval-4" cx="2" cy="9" r="2"></circle>
                                <circle id="Oval-5" cx="9" cy="9" r="2"></circle>
                                <circle id="Oval-6" cx="6" cy="2" r="2"></circle>
                            </g>
                        </g>
                        <g id="5-2" class="car-animation" transform="translate(70.000000, 259.000000)">
                            <path d="M60.1982692,27.6658079 L66.0038948,27.6658079 L66.0038948,15.593054 L54.3370973,13.8938143 L54.3201857,13.8938143 L48.5566621,3.88513193 L30.3358839,3.88513193 L24.5725019,13.8938142 L24.6044853,13.8938142 L15.303894,15.5930538 L15.303894,27.6658078 L20.2306127,27.6658078 C20.2306127,31.6542601 22.9721993,34.8875135 26.3541618,34.8875135 C29.7361242,34.8875135 32.4778524,31.6542601 32.4778524,27.6658078 L47.9510294,27.6658078 C47.9510294,31.6542601 50.6926161,34.8875135 54.0745785,34.8875135 C57.4566118,34.8875135 60.1982692,31.6542603 60.1982692,27.6658079 L60.1982692,27.6658079 Z" id="Shape" stroke="#935813" stroke-width="3" fill="#9C5C12" opacity="0.847597948"></path>
                            <g id="Smoke" stroke="#935814" fill="#9C5C13">
                                <circle id="Oval-1" cx="9" cy="16" r="2"></circle>
                                <circle id="Oval-2" cx="9" cy="23" r="2"></circle>
                                <circle id="Oval-3" cx="2" cy="16" r="2"></circle>
                                <circle id="Oval-4" cx="2" cy="9" r="2"></circle>
                                <circle id="Oval-5" cx="9" cy="9" r="2"></circle>
                                <circle id="Oval-6" cx="6" cy="2" r="2"></circle>
                            </g>
                        </g>
                        <g id="5-1" class="car-animation" transform="translate(0.000000, 259.000000)">
                            <path d="M60.1982692,27.6658079 L66.0038948,27.6658079 L66.0038948,15.593054 L54.3370973,13.8938143 L54.3201857,13.8938143 L48.5566621,3.88513193 L30.3358839,3.88513193 L24.5725019,13.8938142 L24.6044853,13.8938142 L15.303894,15.5930538 L15.303894,27.6658078 L20.2306127,27.6658078 C20.2306127,31.6542601 22.9721993,34.8875135 26.3541618,34.8875135 C29.7361242,34.8875135 32.4778524,31.6542601 32.4778524,27.6658078 L47.9510294,27.6658078 C47.9510294,31.6542601 50.6926161,34.8875135 54.0745785,34.8875135 C57.4566118,34.8875135 60.1982692,31.6542603 60.1982692,27.6658079 L60.1982692,27.6658079 Z" id="Shape" stroke="#935813" stroke-width="3" fill="#9C5C12" opacity="0.847597948"></path>
                            <g id="Smoke" stroke="#935814" fill="#9C5C13">
                                <circle id="Oval-1" cx="9" cy="16" r="2"></circle>
                                <circle id="Oval-2" cx="9" cy="23" r="2"></circle>
                                <circle id="Oval-3" cx="2" cy="16" r="2"></circle>
                                <circle id="Oval-4" cx="2" cy="9" r="2"></circle>
                                <circle id="Oval-5" cx="9" cy="9" r="2"></circle>
                                <circle id="Oval-6" cx="6" cy="2" r="2"></circle>
                            </g>
                        </g>
                        <g id="4-6" class="car-animation" transform="translate(374.000000, 196.000000)">
                            <path d="M59.1982692,27.6658079 L65.0038948,27.6658079 L65.0038948,15.593054 L53.3370973,13.8938143 L53.3201857,13.8938143 L47.5566621,3.88513193 L29.3358839,3.88513193 L23.5725019,13.8938142 L23.6044853,13.8938142 L14.303894,15.5930538 L14.303894,27.6658078 L19.2306127,27.6658078 C19.2306127,31.6542601 21.9721993,34.8875135 25.3541618,34.8875135 C28.7361242,34.8875135 31.4778524,31.6542601 31.4778524,27.6658078 L46.9510294,27.6658078 C46.9510294,31.6542601 49.6926161,34.8875135 53.0745785,34.8875135 C56.4566118,34.8875135 59.1982692,31.6542603 59.1982692,27.6658079 L59.1982692,27.6658079 Z" id="Shape" stroke="#935813" stroke-width="3" fill="#9C5C12" opacity="0.847597948"></path>
                            <g id="Smoke" stroke="#935814" fill="#9C5C13">
                                <circle id="Oval-1" cx="9" cy="16" r="2"></circle>
                                <circle id="Oval-2" cx="9" cy="23" r="2"></circle>
                                <circle id="Oval-3" cx="2" cy="16" r="2"></circle>
                                <circle id="Oval-4" cx="2" cy="9" r="2"></circle>
                                <circle id="Oval-5" cx="9" cy="9" r="2"></circle>
                                <circle id="Oval-6" cx="6" cy="2" r="2"></circle>
                            </g>
                        </g>
                        <g id="4-5" class="car-animation" transform="translate(304.000000, 196.000000)">
                            <path d="M59.1982692,27.6658079 L65.0038948,27.6658079 L65.0038948,15.593054 L53.3370973,13.8938143 L53.3201857,13.8938143 L47.5566621,3.88513193 L29.3358839,3.88513193 L23.5725019,13.8938142 L23.6044853,13.8938142 L14.303894,15.5930538 L14.303894,27.6658078 L19.2306127,27.6658078 C19.2306127,31.6542601 21.9721993,34.8875135 25.3541618,34.8875135 C28.7361242,34.8875135 31.4778524,31.6542601 31.4778524,27.6658078 L46.9510294,27.6658078 C46.9510294,31.6542601 49.6926161,34.8875135 53.0745785,34.8875135 C56.4566118,34.8875135 59.1982692,31.6542603 59.1982692,27.6658079 L59.1982692,27.6658079 Z" id="Shape" stroke="#935813" stroke-width="3" fill="#9C5C12" opacity="0.847597948"></path>
                            <g id="Smoke" stroke="#935814" fill="#9C5C13">
                                <circle id="Oval-1" cx="9" cy="16" r="2"></circle>
                                <circle id="Oval-2" cx="9" cy="23" r="2"></circle>
                                <circle id="Oval-3" cx="2" cy="16" r="2"></circle>
                                <circle id="Oval-4" cx="2" cy="9" r="2"></circle>
                                <circle id="Oval-5" cx="9" cy="9" r="2"></circle>
                                <circle id="Oval-6" cx="6" cy="2" r="2"></circle>
                            </g>
                        </g>
                        <g id="4-4" class="car-animation" transform="translate(234.000000, 196.000000)">
                            <path d="M59.1982692,27.6658079 L65.0038948,27.6658079 L65.0038948,15.593054 L53.3370973,13.8938143 L53.3201857,13.8938143 L47.5566621,3.88513193 L29.3358839,3.88513193 L23.5725019,13.8938142 L23.6044853,13.8938142 L14.303894,15.5930538 L14.303894,27.6658078 L19.2306127,27.6658078 C19.2306127,31.6542601 21.9721993,34.8875135 25.3541618,34.8875135 C28.7361242,34.8875135 31.4778524,31.6542601 31.4778524,27.6658078 L46.9510294,27.6658078 C46.9510294,31.6542601 49.6926161,34.8875135 53.0745785,34.8875135 C56.4566118,34.8875135 59.1982692,31.6542603 59.1982692,27.6658079 L59.1982692,27.6658079 Z" id="Shape" stroke="#935813" stroke-width="3" fill="#9C5C12" opacity="0.847597948"></path>
                            <g id="Smoke" stroke="#935814" fill="#9C5C13">
                                <circle id="Oval-1" cx="9" cy="16" r="2"></circle>
                                <circle id="Oval-2" cx="9" cy="23" r="2"></circle>
                                <circle id="Oval-3" cx="2" cy="16" r="2"></circle>
                                <circle id="Oval-4" cx="2" cy="9" r="2"></circle>
                                <circle id="Oval-5" cx="9" cy="9" r="2"></circle>
                                <circle id="Oval-6" cx="6" cy="2" r="2"></circle>
                            </g>
                        </g>
                        <g id="4-3" class="car-animation" transform="translate(164.000000, 196.000000)">
                            <path d="M59.1982692,27.6658079 L65.0038948,27.6658079 L65.0038948,15.593054 L53.3370973,13.8938143 L53.3201857,13.8938143 L47.5566621,3.88513193 L29.3358839,3.88513193 L23.5725019,13.8938142 L23.6044853,13.8938142 L14.303894,15.5930538 L14.303894,27.6658078 L19.2306127,27.6658078 C19.2306127,31.6542601 21.9721993,34.8875135 25.3541618,34.8875135 C28.7361242,34.8875135 31.4778524,31.6542601 31.4778524,27.6658078 L46.9510294,27.6658078 C46.9510294,31.6542601 49.6926161,34.8875135 53.0745785,34.8875135 C56.4566118,34.8875135 59.1982692,31.6542603 59.1982692,27.6658079 L59.1982692,27.6658079 Z" id="Shape" stroke="#935813" stroke-width="3" fill="#9C5C12" opacity="0.847597948"></path>
                            <g id="Smoke" stroke="#935814" fill="#9C5C13">
                                <circle id="Oval-1" cx="9" cy="16" r="2"></circle>
                                <circle id="Oval-2" cx="9" cy="23" r="2"></circle>
                                <circle id="Oval-3" cx="2" cy="16" r="2"></circle>
                                <circle id="Oval-4" cx="2" cy="9" r="2"></circle>
                                <circle id="Oval-5" cx="9" cy="9" r="2"></circle>
                                <circle id="Oval-6" cx="6" cy="2" r="2"></circle>
                            </g>
                        </g>
                        <g id="4-2" class="car-animation" transform="translate(94.000000, 196.000000)">
                            <path d="M59.1982692,27.6658079 L65.0038948,27.6658079 L65.0038948,15.593054 L53.3370973,13.8938143 L53.3201857,13.8938143 L47.5566621,3.88513193 L29.3358839,3.88513193 L23.5725019,13.8938142 L23.6044853,13.8938142 L14.303894,15.5930538 L14.303894,27.6658078 L19.2306127,27.6658078 C19.2306127,31.6542601 21.9721993,34.8875135 25.3541618,34.8875135 C28.7361242,34.8875135 31.4778524,31.6542601 31.4778524,27.6658078 L46.9510294,27.6658078 C46.9510294,31.6542601 49.6926161,34.8875135 53.0745785,34.8875135 C56.4566118,34.8875135 59.1982692,31.6542603 59.1982692,27.6658079 L59.1982692,27.6658079 Z" id="Shape" stroke="#935813" stroke-width="3" fill="#9C5C12" opacity="0.847597948"></path>
                            <g id="Smoke" stroke="#935814" fill="#9C5C13">
                                <circle id="Oval-1" cx="9" cy="16" r="2"></circle>
                                <circle id="Oval-2" cx="9" cy="23" r="2"></circle>
                                <circle id="Oval-3" cx="2" cy="16" r="2"></circle>
                                <circle id="Oval-4" cx="2" cy="9" r="2"></circle>
                                <circle id="Oval-5" cx="9" cy="9" r="2"></circle>
                                <circle id="Oval-6" cx="6" cy="2" r="2"></circle>
                            </g>
                        </g>
                        <g id="4-1" class="car-animation" transform="translate(24.000000, 196.000000)">
                            <path d="M59.1982692,27.6658079 L65.0038948,27.6658079 L65.0038948,15.593054 L53.3370973,13.8938143 L53.3201857,13.8938143 L47.5566621,3.88513193 L29.3358839,3.88513193 L23.5725019,13.8938142 L23.6044853,13.8938142 L14.303894,15.5930538 L14.303894,27.6658078 L19.2306127,27.6658078 C19.2306127,31.6542601 21.9721993,34.8875135 25.3541618,34.8875135 C28.7361242,34.8875135 31.4778524,31.6542601 31.4778524,27.6658078 L46.9510294,27.6658078 C46.9510294,31.6542601 49.6926161,34.8875135 53.0745785,34.8875135 C56.4566118,34.8875135 59.1982692,31.6542603 59.1982692,27.6658079 L59.1982692,27.6658079 Z" id="Shape" stroke="#935813" stroke-width="3" fill="#9C5C12" opacity="0.847597948"></path>
                            <g id="Smoke" stroke="#935814" fill="#9C5C13">
                                <circle id="Oval-1" cx="9" cy="16" r="2"></circle>
                                <circle id="Oval-2" cx="9" cy="23" r="2"></circle>
                                <circle id="Oval-3" cx="2" cy="16" r="2"></circle>
                                <circle id="Oval-4" cx="2" cy="9" r="2"></circle>
                                <circle id="Oval-5" cx="9" cy="9" r="2"></circle>
                                <circle id="Oval-6" cx="6" cy="2" r="2"></circle>
                            </g>
                        </g>
                        <g id="3-6" class="car-animation" transform="translate(350.000000, 130.000000)">
                            <path d="M60.1982692,27.6658079 L66.0038948,27.6658079 L66.0038948,15.593054 L54.3370973,13.8938143 L54.3201857,13.8938143 L48.5566621,3.88513193 L30.3358839,3.88513193 L24.5725019,13.8938142 L24.6044853,13.8938142 L15.303894,15.5930538 L15.303894,27.6658078 L20.2306127,27.6658078 C20.2306127,31.6542601 22.9721993,34.8875135 26.3541618,34.8875135 C29.7361242,34.8875135 32.4778524,31.6542601 32.4778524,27.6658078 L47.9510294,27.6658078 C47.9510294,31.6542601 50.6926161,34.8875135 54.0745785,34.8875135 C57.4566118,34.8875135 60.1982692,31.6542603 60.1982692,27.6658079 L60.1982692,27.6658079 Z" id="Shape" stroke="#935813" stroke-width="3" fill="#9C5C12" opacity="0.847597948"></path>
                            <g id="Smoke" stroke="#935814" fill="#9C5C13">
                                <circle id="Oval-1" cx="9" cy="16" r="2"></circle>
                                <circle id="Oval-2" cx="9" cy="23" r="2"></circle>
                                <circle id="Oval-3" cx="2" cy="16" r="2"></circle>
                                <circle id="Oval-4" cx="2" cy="9" r="2"></circle>
                                <circle id="Oval-5" cx="9" cy="9" r="2"></circle>
                                <circle id="Oval-6" cx="6" cy="2" r="2"></circle>
                            </g>
                        </g>
                        <g id="3-5" class="car-animation" transform="translate(280.000000, 130.000000)">
                            <path d="M61.1982692,27.6658079 L67.0038948,27.6658079 L67.0038948,15.593054 L55.3370973,13.8938143 L55.3201857,13.8938143 L49.5566621,3.88513193 L31.3358839,3.88513193 L25.5725019,13.8938142 L25.6044853,13.8938142 L16.303894,15.5930538 L16.303894,27.6658078 L21.2306127,27.6658078 C21.2306127,31.6542601 23.9721993,34.8875135 27.3541618,34.8875135 C30.7361242,34.8875135 33.4778524,31.6542601 33.4778524,27.6658078 L48.9510294,27.6658078 C48.9510294,31.6542601 51.6926161,34.8875135 55.0745785,34.8875135 C58.4566118,34.8875135 61.1982692,31.6542603 61.1982692,27.6658079 L61.1982692,27.6658079 Z" id="Shape" stroke="#935813" stroke-width="3" fill="#9C5C12" opacity="0.847597948"></path>
                            <g id="Smoke" stroke="#935814" fill="#9C5C13">
                                <circle id="Oval-1" cx="9" cy="16" r="2"></circle>
                                <circle id="Oval-2" cx="9" cy="23" r="2"></circle>
                                <circle id="Oval-3" cx="2" cy="16" r="2"></circle>
                                <circle id="Oval-4" cx="2" cy="9" r="2"></circle>
                                <circle id="Oval-5" cx="9" cy="9" r="2"></circle>
                                <circle id="Oval-6" cx="6" cy="2" r="2"></circle>
                            </g>
                        </g>
                        <g id="3-4" class="car-animation" transform="translate(210.000000, 130.000000)">
                            <path d="M60.1982692,27.6658079 L66.0038948,27.6658079 L66.0038948,15.593054 L54.3370973,13.8938143 L54.3201857,13.8938143 L48.5566621,3.88513193 L30.3358839,3.88513193 L24.5725019,13.8938142 L24.6044853,13.8938142 L15.303894,15.5930538 L15.303894,27.6658078 L20.2306127,27.6658078 C20.2306127,31.6542601 22.9721993,34.8875135 26.3541618,34.8875135 C29.7361242,34.8875135 32.4778524,31.6542601 32.4778524,27.6658078 L47.9510294,27.6658078 C47.9510294,31.6542601 50.6926161,34.8875135 54.0745785,34.8875135 C57.4566118,34.8875135 60.1982692,31.6542603 60.1982692,27.6658079 L60.1982692,27.6658079 Z" id="Shape" stroke="#935813" stroke-width="3" fill="#9C5C12" opacity="0.847597948"></path>
                            <g id="Smoke" stroke="#935814" fill="#9C5C13">
                                <circle id="Oval-1" cx="9" cy="16" r="2"></circle>
                                <circle id="Oval-2" cx="9" cy="23" r="2"></circle>
                                <circle id="Oval-3" cx="2" cy="16" r="2"></circle>
                                <circle id="Oval-4" cx="2" cy="9" r="2"></circle>
                                <circle id="Oval-5" cx="9" cy="9" r="2"></circle>
                                <circle id="Oval-6" cx="6" cy="2" r="2"></circle>
                            </g>
                        </g>
                        <g id="3-3" class="car-animation" transform="translate(140.000000, 130.000000)">
                            <path d="M60.1982692,27.6658079 L66.0038948,27.6658079 L66.0038948,15.593054 L54.3370973,13.8938143 L54.3201857,13.8938143 L48.5566621,3.88513193 L30.3358839,3.88513193 L24.5725019,13.8938142 L24.6044853,13.8938142 L15.303894,15.5930538 L15.303894,27.6658078 L20.2306127,27.6658078 C20.2306127,31.6542601 22.9721993,34.8875135 26.3541618,34.8875135 C29.7361242,34.8875135 32.4778524,31.6542601 32.4778524,27.6658078 L47.9510294,27.6658078 C47.9510294,31.6542601 50.6926161,34.8875135 54.0745785,34.8875135 C57.4566118,34.8875135 60.1982692,31.6542603 60.1982692,27.6658079 L60.1982692,27.6658079 Z" id="Shape" stroke="#935813" stroke-width="3" fill="#9C5C12" opacity="0.847597948"></path>
                            <g id="Smoke" stroke="#935814" fill="#9C5C13">
                                <circle id="Oval-1" cx="9" cy="16" r="2"></circle>
                                <circle id="Oval-2" cx="9" cy="23" r="2"></circle>
                                <circle id="Oval-3" cx="2" cy="16" r="2"></circle>
                                <circle id="Oval-4" cx="2" cy="9" r="2"></circle>
                                <circle id="Oval-5" cx="9" cy="9" r="2"></circle>
                                <circle id="Oval-6" cx="6" cy="2" r="2"></circle>
                            </g>
                        </g>
                        <g id="3-2" class="car-animation" transform="translate(70.000000, 130.000000)">
                            <path d="M60.1982692,27.6658079 L66.0038948,27.6658079 L66.0038948,15.593054 L54.3370973,13.8938143 L54.3201857,13.8938143 L48.5566621,3.88513193 L30.3358839,3.88513193 L24.5725019,13.8938142 L24.6044853,13.8938142 L15.303894,15.5930538 L15.303894,27.6658078 L20.2306127,27.6658078 C20.2306127,31.6542601 22.9721993,34.8875135 26.3541618,34.8875135 C29.7361242,34.8875135 32.4778524,31.6542601 32.4778524,27.6658078 L47.9510294,27.6658078 C47.9510294,31.6542601 50.6926161,34.8875135 54.0745785,34.8875135 C57.4566118,34.8875135 60.1982692,31.6542603 60.1982692,27.6658079 L60.1982692,27.6658079 Z" id="Shape" stroke="#935813" stroke-width="3" fill="#9C5C12" opacity="0.847597948"></path>
                            <g id="Smoke" stroke="#935814" fill="#9C5C13">
                                <circle id="Oval-1" cx="9" cy="16" r="2"></circle>
                                <circle id="Oval-2" cx="9" cy="23" r="2"></circle>
                                <circle id="Oval-3" cx="2" cy="16" r="2"></circle>
                                <circle id="Oval-4" cx="2" cy="9" r="2"></circle>
                                <circle id="Oval-5" cx="9" cy="9" r="2"></circle>
                                <circle id="Oval-6" cx="6" cy="2" r="2"></circle>
                            </g>
                        </g>
                        <g id="2-6" class="car-animation" transform="translate(373.000000, 65.000000)">
                            <path d="M60.1982692,27.6658079 L66.0038948,27.6658079 L66.0038948,15.593054 L54.3370973,13.8938143 L54.3201857,13.8938143 L48.5566621,3.88513193 L30.3358839,3.88513193 L24.5725019,13.8938142 L24.6044853,13.8938142 L15.303894,15.5930538 L15.303894,27.6658078 L20.2306127,27.6658078 C20.2306127,31.6542601 22.9721993,34.8875135 26.3541618,34.8875135 C29.7361242,34.8875135 32.4778524,31.6542601 32.4778524,27.6658078 L47.9510294,27.6658078 C47.9510294,31.6542601 50.6926161,34.8875135 54.0745785,34.8875135 C57.4566118,34.8875135 60.1982692,31.6542603 60.1982692,27.6658079 L60.1982692,27.6658079 Z" id="Shape" stroke="#935813" stroke-width="3" fill="#9C5C12" opacity="0.847597948"></path>
                            <g id="Smoke" stroke="#935814" fill="#9C5C13">
                                <circle id="Oval-1" cx="9" cy="16" r="2"></circle>
                                <circle id="Oval-2" cx="9" cy="23" r="2"></circle>
                                <circle id="Oval-3" cx="2" cy="16" r="2"></circle>
                                <circle id="Oval-4" cx="2" cy="9" r="2"></circle>
                                <circle id="Oval-5" cx="9" cy="9" r="2"></circle>
                                <circle id="Oval-6" cx="6" cy="2" r="2"></circle>
                            </g>
                        </g>
                        <g id="2-5" class="car-animation" transform="translate(303.000000, 65.000000)">
                            <path d="M60.1982692,27.6658079 L66.0038948,27.6658079 L66.0038948,15.593054 L54.3370973,13.8938143 L54.3201857,13.8938143 L48.5566621,3.88513193 L30.3358839,3.88513193 L24.5725019,13.8938142 L24.6044853,13.8938142 L15.303894,15.5930538 L15.303894,27.6658078 L20.2306127,27.6658078 C20.2306127,31.6542601 22.9721993,34.8875135 26.3541618,34.8875135 C29.7361242,34.8875135 32.4778524,31.6542601 32.4778524,27.6658078 L47.9510294,27.6658078 C47.9510294,31.6542601 50.6926161,34.8875135 54.0745785,34.8875135 C57.4566118,34.8875135 60.1982692,31.6542603 60.1982692,27.6658079 L60.1982692,27.6658079 Z" id="Shape" stroke="#935813" stroke-width="3" fill="#9C5C12" opacity="0.847597948"></path>
                            <g id="Smoke" stroke="#935814" fill="#9C5C13">
                                <circle id="Oval-1" cx="9" cy="16" r="2"></circle>
                                <circle id="Oval-2" cx="9" cy="23" r="2"></circle>
                                <circle id="Oval-3" cx="2" cy="16" r="2"></circle>
                                <circle id="Oval-4" cx="2" cy="9" r="2"></circle>
                                <circle id="Oval-5" cx="9" cy="9" r="2"></circle>
                                <circle id="Oval-6" cx="6" cy="2" r="2"></circle>
                            </g>
                        </g>
                        <g id="2-4" class="car-animation" transform="translate(233.000000, 65.000000)">
                            <path d="M60.1982692,27.6658079 L66.0038948,27.6658079 L66.0038948,15.593054 L54.3370973,13.8938143 L54.3201857,13.8938143 L48.5566621,3.88513193 L30.3358839,3.88513193 L24.5725019,13.8938142 L24.6044853,13.8938142 L15.303894,15.5930538 L15.303894,27.6658078 L20.2306127,27.6658078 C20.2306127,31.6542601 22.9721993,34.8875135 26.3541618,34.8875135 C29.7361242,34.8875135 32.4778524,31.6542601 32.4778524,27.6658078 L47.9510294,27.6658078 C47.9510294,31.6542601 50.6926161,34.8875135 54.0745785,34.8875135 C57.4566118,34.8875135 60.1982692,31.6542603 60.1982692,27.6658079 L60.1982692,27.6658079 Z" id="Shape" stroke="#935813" stroke-width="3" fill="#9C5C12" opacity="0.847597948"></path>
                            <g id="Smoke" stroke="#935814" fill="#9C5C13">
                                <circle id="Oval-1" cx="9" cy="16" r="2"></circle>
                                <circle id="Oval-2" cx="9" cy="23" r="2"></circle>
                                <circle id="Oval-3" cx="2" cy="16" r="2"></circle>
                                <circle id="Oval-4" cx="2" cy="9" r="2"></circle>
                                <circle id="Oval-5" cx="9" cy="9" r="2"></circle>
                                <circle id="Oval-6" cx="6" cy="2" r="2"></circle>
                            </g>
                        </g>
                        <g id="2-3" class="car-animation" transform="translate(163.000000, 66.000000)">
                            <path d="M60.1982692,26.6658079 L66.0038948,26.6658079 L66.0038948,14.593054 L54.3370973,12.8938143 L54.3201857,12.8938143 L48.5566621,2.88513193 L30.3358839,2.88513193 L24.5725019,12.8938142 L24.6044853,12.8938142 L15.303894,14.5930538 L15.303894,26.6658078 L20.2306127,26.6658078 C20.2306127,30.6542601 22.9721993,33.8875135 26.3541618,33.8875135 C29.7361242,33.8875135 32.4778524,30.6542601 32.4778524,26.6658078 L47.9510294,26.6658078 C47.9510294,30.6542601 50.6926161,33.8875135 54.0745785,33.8875135 C57.4566118,33.8875135 60.1982692,30.6542603 60.1982692,26.6658079 L60.1982692,26.6658079 Z" id="Shape" stroke="#935813" stroke-width="3" fill="#9C5C12" opacity="0.847597948"></path>
                            <g id="Smoke" stroke="#935814" fill="#9C5C13">
                                <circle id="Oval-1" cx="9" cy="16" r="2"></circle>
                                <circle id="Oval-2" cx="9" cy="23" r="2"></circle>
                                <circle id="Oval-3" cx="2" cy="16" r="2"></circle>
                                <circle id="Oval-4" cx="2" cy="9" r="2"></circle>
                                <circle id="Oval-5" cx="9" cy="9" r="2"></circle>
                                <circle id="Oval-6" cx="6" cy="2" r="2"></circle>
                            </g>
                        </g>
                        <g id="1-6" class="car-animation" transform="translate(351.000000, 0.000000)">
                            <path d="M59.1982692,27.6658079 L65.0038948,27.6658079 L65.0038948,15.593054 L53.3370973,13.8938143 L53.3201857,13.8938143 L47.5566621,3.88513193 L29.3358839,3.88513193 L23.5725019,13.8938142 L23.6044853,13.8938142 L14.303894,15.5930538 L14.303894,27.6658078 L19.2306127,27.6658078 C19.2306127,31.6542601 21.9721993,34.8875135 25.3541618,34.8875135 C28.7361242,34.8875135 31.4778524,31.6542601 31.4778524,27.6658078 L46.9510294,27.6658078 C46.9510294,31.6542601 49.6926161,34.8875135 53.0745785,34.8875135 C56.4566118,34.8875135 59.1982692,31.6542603 59.1982692,27.6658079 L59.1982692,27.6658079 Z" id="Shape" stroke="#935813" stroke-width="3" fill="#9C5C12" opacity="0.847597948"></path>
                            <g id="Smoke" stroke="#935814" fill="#9C5C13">
                                <circle id="Oval-1" cx="9" cy="16" r="2"></circle>
                                <circle id="Oval-2" cx="9" cy="23" r="2"></circle>
                                <circle id="Oval-3" cx="2" cy="16" r="2"></circle>
                                <circle id="Oval-4" cx="2" cy="9" r="2"></circle>
                                <circle id="Oval-5" cx="9" cy="9" r="2"></circle>
                                <circle id="Oval-6" cx="6" cy="2" r="2"></circle>
                            </g>
                        </g>
                        <g id="1-5" class="car-animation" transform="translate(281.000000, 0.000000)">
                            <path d="M59.1982692,27.6658079 L65.0038948,27.6658079 L65.0038948,15.593054 L53.3370973,13.8938143 L53.3201857,13.8938143 L47.5566621,3.88513193 L29.3358839,3.88513193 L23.5725019,13.8938142 L23.6044853,13.8938142 L14.303894,15.5930538 L14.303894,27.6658078 L19.2306127,27.6658078 C19.2306127,31.6542601 21.9721993,34.8875135 25.3541618,34.8875135 C28.7361242,34.8875135 31.4778524,31.6542601 31.4778524,27.6658078 L46.9510294,27.6658078 C46.9510294,31.6542601 49.6926161,34.8875135 53.0745785,34.8875135 C56.4566118,34.8875135 59.1982692,31.6542603 59.1982692,27.6658079 L59.1982692,27.6658079 Z" id="Shape" stroke="#935813" stroke-width="3" fill="#9C5C12" opacity="0.847597948"></path>
                            <g id="Smoke" stroke="#935814" fill="#9C5C13">
                                <circle id="Oval-1" cx="9" cy="16" r="2"></circle>
                                <circle id="Oval-2" cx="9" cy="23" r="2"></circle>
                                <circle id="Oval-3" cx="2" cy="16" r="2"></circle>
                                <circle id="Oval-4" cx="2" cy="9" r="2"></circle>
                                <circle id="Oval-5" cx="9" cy="9" r="2"></circle>
                                <circle id="Oval-6" cx="6" cy="2" r="2"></circle>
                            </g>
                        </g>
                        <g id="1-4" class="car-animation" transform="translate(211.000000, 0.000000)">
                            <path d="M59.1982692,27.6658079 L65.0038948,27.6658079 L65.0038948,15.593054 L53.3370973,13.8938143 L53.3201857,13.8938143 L47.5566621,3.88513193 L29.3358839,3.88513193 L23.5725019,13.8938142 L23.6044853,13.8938142 L14.303894,15.5930538 L14.303894,27.6658078 L19.2306127,27.6658078 C19.2306127,31.6542601 21.9721993,34.8875135 25.3541618,34.8875135 C28.7361242,34.8875135 31.4778524,31.6542601 31.4778524,27.6658078 L46.9510294,27.6658078 C46.9510294,31.6542601 49.6926161,34.8875135 53.0745785,34.8875135 C56.4566118,34.8875135 59.1982692,31.6542603 59.1982692,27.6658079 L59.1982692,27.6658079 Z" id="Shape" stroke="#935813" stroke-width="3" fill="#9C5C12" opacity="0.847597948"></path>
                            <g id="Smoke" stroke="#935814" fill="#9C5C13">
                                <circle id="Oval-1" cx="9" cy="16" r="2"></circle>
                                <circle id="Oval-2" cx="9" cy="23" r="2"></circle>
                                <circle id="Oval-3" cx="2" cy="16" r="2"></circle>
                                <circle id="Oval-4" cx="2" cy="9" r="2"></circle>
                                <circle id="Oval-5" cx="9" cy="9" r="2"></circle>
                                <circle id="Oval-6" cx="6" cy="2" r="2"></circle>
                            </g>
                        </g>
                    </g>
                </g>
            </g>
        </svg>