<?xml version="1.0" encoding="UTF-8" standalone="no"?>
<svg width="197px" height="198px" viewBox="0 0 197 198" version="1.1" xmlns="http://www.w3.org/2000/svg" xmlns:xlink="http://www.w3.org/1999/xlink" style="background: #FFFFFF;">
    <!-- Generator: Sketch 39.1 (31720) - http://www.bohemiancoding.com/sketch -->
    <title>Tree Lifeline</title>
    <desc>Created with Sketch.</desc>
    <defs></defs>
    <g id="Widgets" stroke="none" stroke-width="1" fill="none" fill-rule="evenodd">
        <g id="Tree-Lifeline">
            <g id="Group" transform="translate(28.000000, 30.000000)">
                <g id="Factory" transform="translate(44.000000, 0.000000)" fill="#6A9910">
                    <path d="M50.5714286,46.0625 L37.9285714,37.6875 L37.9285714,46.0625 L25.2857143,37.6875 L25.2857143,46.0625 L12.6428571,37.6875 L12.6428571,46.0625 L0,37.6875 L0,67 L59,67 L59,29.3125 L50.5714286,29.3125 L50.5714286,46.0625 L50.5714286,46.0625 Z M12.6428571,58.625 L4.21428571,58.625 L4.21428571,54.4375 L12.6428571,54.4375 L12.6428571,58.625 L12.6428571,58.625 Z M25.2857143,58.625 L16.8571429,58.625 L16.8571429,54.4375 L25.2857143,54.4375 L25.2857143,58.625 L25.2857143,58.625 Z M37.9285714,58.625 L29.5,58.625 L29.5,54.4375 L37.9285714,54.4375 L37.9285714,58.625 L37.9285714,58.625 Z M50.5714286,58.625 L42.1428571,58.625 L42.1428571,54.4375 L50.5714286,54.4375 L50.5714286,58.625 L50.5714286,58.625 Z" id="Shape"></path>
                    <path d="M48.4642857,12.5625 L37.9285714,12.5625 C37.9285714,10.251 36.0447857,8.375 33.7142857,8.375 L29.1122857,8.375 C28.2399286,5.9420625 25.9262857,4.1875 23.1785714,4.1875 C21.8637143,4.1875 20.6415714,4.5895 19.6301429,5.2720625 C17.8137857,2.135625 14.4423571,0 10.5357143,0 C4.71578571,0 0,4.6858125 0,10.46875 C0,16.2516875 4.71578571,20.9375 10.5357143,20.9375 C11.3659286,20.9375 12.1624286,20.82025 12.9378571,20.6401875 C13.7175,23.223875 16.1027857,25.125 18.9642857,25.125 C21.7162143,25.125 24.0298571,23.3704375 24.898,20.9375 L48.4642857,20.9375 C49.6232143,20.9375 50.5714286,21.8755 50.5714286,23.03125 L50.5714286,25.125 L59,25.125 L59,23.03125 C59,17.260875 54.2757857,12.5625 48.4642857,12.5625 L48.4642857,12.5625 Z" id="Shape"></path>
                </g>
                <text id="1kWh" font-family="SourceSansPro-Regular, Source Sans Pro" font-size="12" font-weight="normal" fill="#000000">
                    <tspan x="0.098" y="96">1kWh</tspan>
                </text>
                <text id="of-electricity-produ" font-family="SourceSansPro-Regular, Source Sans Pro" font-size="12" font-weight="normal" fill="#000000">
                    <tspan x="30.216" y="96"> of electricity produces</tspan>
                </text>
                <g id="Group-2" transform="translate(15.000000, 100.000000)" fill="#000000">
                    <text id="1.106-pounds" font-family="SourceSansPro-Semibold, Source Sans Pro" font-size="14" font-weight="500">
                        <tspan x="0.208" y="14">1.106 pounds</tspan>
                    </text>
                    <text id="of-C02" font-family="SourceSansPro-Regular, Source Sans Pro" font-size="12" font-weight="normal">
                        <tspan x="84.424" y="14">of C02</tspan>
                    </text>
                </g>
            </g>
        </g>
    </g>
</svg>